<svg width="11" height="29" viewBox="0 0 11 11" fill="none" xmlns="http://www.w3.org/2000/svg">
<g clip-path="url(#clip0_3433_2829)">
<path d="M8.02238 0H2.97759C1.33572 0 0 1.33572 0 2.97759V8.02247C0 9.66426 1.33572 11 2.97759 11H8.02247C9.66426 11 11 9.66426 11 8.02247V2.97759C11 1.33572 9.66426 0 8.02238 0V0ZM5.49999 8.50771C3.8415 8.50771 2.49227 7.15848 2.49227 5.49999C2.49227 3.8415 3.8415 2.49227 5.49999 2.49227C7.15848 2.49227 8.50771 3.8415 8.50771 5.49999C8.50771 7.15848 7.15848 8.50771 5.49999 8.50771ZM8.57963 3.20159C8.08952 3.20159 7.69089 2.80295 7.69089 2.31284C7.69089 1.82273 8.08952 1.42401 8.57963 1.42401C9.06975 1.42401 9.46846 1.82273 9.46846 2.31284C9.46846 2.80295 9.06975 3.20159 8.57963 3.20159Z" fill="#2FD3AE"/>
<path d="M5.54004 3.54001C4.43729 3.54001 3.54004 4.43718 3.54004 5.54001C3.54004 6.64276 4.43729 7.54001 5.54004 7.54001C6.64286 7.54001 7.54004 6.64276 7.54004 5.54001C7.54004 4.43718 6.64286 3.54001 5.54004 3.54001Z" fill="#2FD3AE"/>
<path d="M8.57957 2.06897C8.44513 2.06897 8.33569 2.17841 8.33569 2.31285C8.33569 2.4473 8.44513 2.55673 8.57957 2.55673C8.7141 2.55673 8.82354 2.44738 8.82354 2.31285C8.82354 2.17832 8.7141 2.06897 8.57957 2.06897Z" fill="#2FD3AE"/>
</g>
<defs>
<clipPath id="clip0_3433_2829">
<rect width="11" height="11" fill="white"/>
</clipPath>
</defs>
</svg>
