<svg width="36" height="36" viewBox="0 0 36 36" fill="none" xmlns="http://www.w3.org/2000/svg">
<path fill-rule="evenodd" clip-rule="evenodd" d="M24.9713 0C30.8774 0 35.6651 4.78778 35.6651 10.6938V29.7209C35.6651 33.0038 33.0038 35.6651 29.7209 35.6651H10.6938C4.78778 35.6651 0 30.8774 0 24.9713C0 19.0653 4.78778 14.2775 10.6938 14.2775H12.9796C13.6964 14.2775 14.2775 13.6964 14.2775 12.9796V10.6938C14.2775 4.78778 19.0653 0 24.9713 0ZM29.8738 12.4427C27.0454 9.20172 25.1518 8.03865 21.1009 7.39679C21.1009 7.39679 24.2546 4.3578 27.6949 6.59404C31.1353 8.83027 29.8738 12.4427 29.8738 12.4427Z" fill="#011D71"/>
</svg>
