<svg width="29" height="29" viewBox="0 0 29 29" fill="none" xmlns="http://www.w3.org/2000/svg">
<circle cx="14.5" cy="14.5" r="14" stroke="#E0E0E0"/>
<path d="M20.6288 17.6971C20.6288 17.6452 20.5769 17.6452 20.5769 17.5933C20.3694 17.1782 19.9024 16.6593 19.2797 16.0885C18.9684 15.8291 18.8127 15.6215 18.7089 15.5177C18.5532 15.3102 18.5533 15.1545 18.6051 14.9469C18.657 14.7913 18.8646 14.5318 19.2278 14.0648C19.4354 13.8054 19.5391 13.6497 19.6948 13.494C20.4731 12.4562 20.8364 11.7817 20.7326 11.4703L20.6807 11.4185C20.6288 11.3666 20.5769 11.3147 20.4731 11.3147C20.3694 11.2628 20.2137 11.2628 20.058 11.3147H18.0862C18.0344 11.3147 18.0343 11.3147 17.9306 11.3147C17.8787 11.3147 17.8268 11.3147 17.8268 11.3147H17.7749H17.723L17.6711 11.3666C17.6192 11.4185 17.6192 11.4185 17.6192 11.4703C17.4117 12.0411 17.1522 12.5081 16.8928 13.027C16.7371 13.2865 16.5815 13.5459 16.4258 13.7535C16.2701 13.961 16.1663 14.1167 16.0626 14.2205C15.9588 14.3243 15.855 14.3761 15.8031 14.4799C15.7512 14.5318 15.6474 14.5837 15.6474 14.5318C15.5956 14.5318 15.5437 14.5318 15.5437 14.4799C15.4918 14.428 15.4399 14.3761 15.388 14.3243C15.3361 14.2724 15.3361 14.1686 15.2842 14.0648C15.2842 13.961 15.2842 13.8573 15.2842 13.8054C15.2842 13.7535 15.2842 13.5978 15.2842 13.494C15.2842 13.3384 15.2842 13.2346 15.2842 13.1827C15.2842 13.027 15.2842 12.8195 15.2842 12.6119C15.2842 12.4044 15.2842 12.2487 15.2842 12.1449C15.2842 12.0411 15.2842 11.8855 15.2842 11.7817C15.2842 11.626 15.2842 11.5222 15.2842 11.4703C15.2842 11.4185 15.2323 11.3147 15.2323 11.2628C15.1804 11.2109 15.1285 11.159 15.0767 11.1071C15.0248 11.0552 14.921 11.0552 14.8691 11.0033C14.6097 10.9515 14.2983 10.8996 13.9351 10.8996C13.1049 10.8996 12.5341 10.9515 12.3265 11.0552C12.2228 11.1071 12.119 11.159 12.0671 11.2628C11.9633 11.3666 11.9633 11.4185 12.0152 11.4185C12.2746 11.4703 12.4822 11.5741 12.586 11.7298L12.6379 11.8336C12.6898 11.8855 12.6897 11.9892 12.7416 12.1449C12.7935 12.3006 12.7935 12.4562 12.7935 12.6638C12.7935 12.9751 12.7935 13.2865 12.7935 13.494C12.7935 13.7535 12.7416 13.9091 12.7416 14.0648C12.7416 14.2205 12.6898 14.3243 12.6379 14.3762C12.586 14.4799 12.586 14.5318 12.5341 14.5318C12.5341 14.5318 12.5341 14.5837 12.4822 14.5837C12.4303 14.5837 12.3784 14.6356 12.2746 14.6356C12.2227 14.6356 12.119 14.5837 12.0671 14.5318C11.9633 14.4799 11.8595 14.3762 11.8076 14.2724C11.7039 14.1686 11.6001 14.0129 11.4963 13.8054C11.3925 13.5978 11.2368 13.3903 11.1331 13.0789L11.0293 12.8714C10.9774 12.7676 10.8736 12.56 10.7698 12.3006C10.6661 12.0411 10.5623 11.8336 10.4585 11.5741C10.4066 11.4704 10.3547 11.4185 10.3028 11.3666H10.251C10.251 11.3666 10.1991 11.3147 10.1472 11.3147C10.0953 11.3147 10.0434 11.2628 9.99151 11.2628H8.12349C7.91593 11.2628 7.81216 11.3147 7.76027 11.3666L7.70837 11.4185C7.70837 11.4185 7.70837 11.4703 7.70837 11.5222C7.70837 11.5741 7.70838 11.626 7.76027 11.7298C8.01971 12.3525 8.33105 12.9751 8.64238 13.5978C8.95372 14.1686 9.26506 14.6875 9.47262 15.0507C9.73206 15.4139 9.93962 15.7772 10.1991 16.0885C10.4585 16.3998 10.6142 16.6074 10.6661 16.7112C10.7698 16.8149 10.8217 16.8668 10.8736 16.9187L11.0293 17.0744C11.1331 17.1782 11.2887 17.3338 11.4963 17.4895C11.7039 17.6452 11.9633 17.8008 12.2227 17.9565C12.4822 18.1122 12.7935 18.216 13.1049 18.3197C13.4681 18.4235 13.7794 18.4754 14.0908 18.4235H14.8691C15.0248 18.4235 15.1286 18.3716 15.2323 18.2678L15.2842 18.216C15.2842 18.1641 15.3361 18.1641 15.3361 18.1122C15.3361 18.0603 15.3361 18.0084 15.3361 17.9046C15.3361 17.6971 15.3361 17.5414 15.388 17.3857C15.4399 17.2301 15.4399 17.1263 15.4918 17.0225C15.5437 16.9187 15.5956 16.8668 15.6474 16.8149C15.6993 16.7631 15.7512 16.7112 15.7512 16.7112H15.8031C15.9069 16.6593 16.0626 16.7112 16.1663 16.8149C16.322 16.9187 16.4777 17.0744 16.5814 17.2301C16.6852 17.3857 16.8409 17.5414 17.0485 17.749C17.256 17.9565 17.4117 18.1122 17.5155 18.1641L17.6711 18.2678C17.7749 18.3197 17.8787 18.3716 18.0344 18.4235C18.19 18.4754 18.2938 18.4754 18.3976 18.4754L20.1618 18.4235C20.3175 18.4235 20.4732 18.3716 20.5769 18.3197C20.6807 18.2679 20.7326 18.216 20.7326 18.1122C20.7326 18.0603 20.7326 17.9565 20.7326 17.9046C20.6288 17.8008 20.6288 17.749 20.6288 17.6971Z" fill="#2FD3AE"/>
</svg>
